<mxfile host="65bd71144e">
    <diagram id="6MmhZP-7fnxyGptQFK5E" name="Page-1">
        <mxGraphModel dx="781" dy="443" grid="0" gridSize="10" guides="1" tooltips="1" connect="1" arrows="1" fold="1" page="1" pageScale="1" pageWidth="1169" pageHeight="827" background="#ffffff" math="0" shadow="0">
            <root>
                <mxCell id="0"/>
                <mxCell id="1" parent="0"/>
                <mxCell id="3" value="localStorage || sessionStorage" style="rounded=0;whiteSpace=wrap;html=1;align=left;verticalAlign=top;" parent="1" vertex="1">
                    <mxGeometry x="731" y="694" width="120" height="36" as="geometry"/>
                </mxCell>
                <mxCell id="10" value="Store" style="whiteSpace=wrap;html=1;dashed=1;resizeHeight=1;resizeWidth=1;imageAspect=0;align=left;verticalAlign=top;spacing=7;" vertex="1" parent="1">
                    <mxGeometry x="10" y="290" width="270" height="470" as="geometry"/>
                </mxCell>
                <mxCell id="41" value="Provider" style="whiteSpace=wrap;html=1;resizeHeight=1;resizeWidth=1;imageAspect=0;align=left;verticalAlign=top;spacing=7;" vertex="1" parent="1">
                    <mxGeometry x="306" y="401" width="161" height="359" as="geometry"/>
                </mxCell>
                <mxCell id="11" value="Dispatcher" style="rounded=1;whiteSpace=wrap;html=1;" vertex="1" parent="1">
                    <mxGeometry x="57.5" y="318" width="192.5" height="60" as="geometry"/>
                </mxCell>
                <mxCell id="33" value="" style="group" vertex="1" connectable="0" parent="1">
                    <mxGeometry x="57.5" y="586" width="192.5" height="150" as="geometry"/>
                </mxCell>
                <mxCell id="14" value="State" style="rounded=1;whiteSpace=wrap;html=1;verticalAlign=top;" vertex="1" parent="33">
                    <mxGeometry width="192.5" height="150" as="geometry"/>
                </mxCell>
                <mxCell id="16" value="" style="rounded=1;whiteSpace=wrap;html=1;fillColor=#1ba1e2;fontColor=#ffffff;strokeColor=#006EAF;" vertex="1" parent="33">
                    <mxGeometry x="79.75" y="30" width="33" height="33" as="geometry"/>
                </mxCell>
                <mxCell id="17" value="" style="rounded=1;whiteSpace=wrap;html=1;fillColor=#1ba1e2;fontColor=#ffffff;strokeColor=#006EAF;" vertex="1" parent="33">
                    <mxGeometry x="39.75" y="67" width="33" height="33" as="geometry"/>
                </mxCell>
                <mxCell id="18" value="" style="rounded=1;whiteSpace=wrap;html=1;fillColor=#1ba1e2;fontColor=#ffffff;strokeColor=#006EAF;" vertex="1" parent="33">
                    <mxGeometry x="79.75" y="104" width="33" height="33" as="geometry"/>
                </mxCell>
                <mxCell id="20" value="" style="rounded=1;whiteSpace=wrap;html=1;fillColor=#1ba1e2;fontColor=#ffffff;strokeColor=#006EAF;" vertex="1" parent="33">
                    <mxGeometry x="119.75" y="67" width="33" height="33" as="geometry"/>
                </mxCell>
                <mxCell id="21" value="" style="endArrow=none;html=1;exitX=1;exitY=0.5;exitDx=0;exitDy=0;entryX=0;entryY=0.5;entryDx=0;entryDy=0;" edge="1" parent="33" source="17" target="20">
                    <mxGeometry width="50" height="50" relative="1" as="geometry">
                        <mxPoint x="32.5" y="110" as="sourcePoint"/>
                        <mxPoint x="82.5" y="60" as="targetPoint"/>
                    </mxGeometry>
                </mxCell>
                <mxCell id="22" value="" style="endArrow=none;html=1;exitX=1;exitY=0.5;exitDx=0;exitDy=0;entryX=0.5;entryY=1;entryDx=0;entryDy=0;" edge="1" parent="33" source="18" target="20">
                    <mxGeometry width="50" height="50" relative="1" as="geometry">
                        <mxPoint x="82.75000000000006" y="93.49999999999989" as="sourcePoint"/>
                        <mxPoint x="129.75" y="93.49999999999989" as="targetPoint"/>
                    </mxGeometry>
                </mxCell>
                <mxCell id="23" value="" style="endArrow=none;html=1;exitX=0;exitY=0.5;exitDx=0;exitDy=0;entryX=1;entryY=0.5;entryDx=0;entryDy=0;" edge="1" parent="33" source="20" target="16">
                    <mxGeometry width="50" height="50" relative="1" as="geometry">
                        <mxPoint x="122.75000000000006" y="130.4999999999999" as="sourcePoint"/>
                        <mxPoint x="146.25" y="110" as="targetPoint"/>
                    </mxGeometry>
                </mxCell>
                <mxCell id="34" value="" style="group" vertex="1" connectable="0" parent="1">
                    <mxGeometry x="57.5" y="420" width="192.5" height="140" as="geometry"/>
                </mxCell>
                <mxCell id="13" value="Reducer" style="rounded=1;whiteSpace=wrap;html=1;dashed=1;verticalAlign=top;" vertex="1" parent="34">
                    <mxGeometry width="192.5" height="140" as="geometry"/>
                </mxCell>
                <mxCell id="25" value="R" style="rounded=1;whiteSpace=wrap;html=1;fillColor=#1ba1e2;fontColor=#ffffff;strokeColor=#006EAF;" vertex="1" parent="34">
                    <mxGeometry x="79.75" y="50" width="33" height="33" as="geometry"/>
                </mxCell>
                <mxCell id="26" value="R" style="rounded=1;whiteSpace=wrap;html=1;fillColor=#1ba1e2;fontColor=#ffffff;strokeColor=#006EAF;" vertex="1" parent="34">
                    <mxGeometry x="39.75" y="60" width="33" height="33" as="geometry"/>
                </mxCell>
                <mxCell id="27" value="R" style="rounded=1;whiteSpace=wrap;html=1;fillColor=#1ba1e2;fontColor=#ffffff;strokeColor=#006EAF;" vertex="1" parent="34">
                    <mxGeometry x="119.75" y="70" width="33" height="33" as="geometry"/>
                </mxCell>
                <mxCell id="28" value="" style="endArrow=none;html=1;exitX=0.5;exitY=1;exitDx=0;exitDy=0;entryX=0.5;entryY=1;entryDx=0;entryDy=0;rounded=0;" edge="1" parent="34" source="26" target="27">
                    <mxGeometry width="50" height="50" relative="1" as="geometry">
                        <mxPoint x="62.5" y="160" as="sourcePoint"/>
                        <mxPoint x="112.5" y="110" as="targetPoint"/>
                        <Array as="points">
                            <mxPoint x="56.5" y="120"/>
                            <mxPoint x="92.5" y="120"/>
                            <mxPoint x="136.5" y="120"/>
                        </Array>
                    </mxGeometry>
                </mxCell>
                <mxCell id="29" value="" style="endArrow=none;html=1;exitX=0.5;exitY=0;exitDx=0;exitDy=0;entryX=0.5;entryY=0;entryDx=0;entryDy=0;rounded=0;" edge="1" parent="34" source="26" target="27">
                    <mxGeometry width="50" height="50" relative="1" as="geometry">
                        <mxPoint x="66.24999999999994" y="103" as="sourcePoint"/>
                        <mxPoint x="146.24999999999994" y="113" as="targetPoint"/>
                        <Array as="points">
                            <mxPoint x="56.5" y="30"/>
                            <mxPoint x="136.5" y="30"/>
                        </Array>
                    </mxGeometry>
                </mxCell>
                <mxCell id="30" value="" style="endArrow=none;html=1;rounded=0;entryX=0.5;entryY=1;entryDx=0;entryDy=0;" edge="1" parent="34" target="25">
                    <mxGeometry width="50" height="50" relative="1" as="geometry">
                        <mxPoint x="96.5" y="120" as="sourcePoint"/>
                        <mxPoint x="122.5" y="100" as="targetPoint"/>
                    </mxGeometry>
                </mxCell>
                <mxCell id="31" value="" style="endArrow=none;html=1;rounded=0;entryX=0.5;entryY=0;entryDx=0;entryDy=0;" edge="1" parent="34" target="25">
                    <mxGeometry width="50" height="50" relative="1" as="geometry">
                        <mxPoint x="96.5" y="30" as="sourcePoint"/>
                        <mxPoint x="106.25" y="93" as="targetPoint"/>
                    </mxGeometry>
                </mxCell>
                <mxCell id="35" value="" style="endArrow=classic;html=1;rounded=0;exitX=0.5;exitY=1;exitDx=0;exitDy=0;entryX=0.5;entryY=0;entryDx=0;entryDy=0;" edge="1" parent="1" source="13" target="14">
                    <mxGeometry width="50" height="50" relative="1" as="geometry">
                        <mxPoint x="140" y="630" as="sourcePoint"/>
                        <mxPoint x="190" y="580" as="targetPoint"/>
                    </mxGeometry>
                </mxCell>
                <mxCell id="36" value="" style="endArrow=classic;html=1;rounded=0;entryX=0.5;entryY=0;entryDx=0;entryDy=0;exitX=0;exitY=0.5;exitDx=0;exitDy=0;" edge="1" parent="1" source="14" target="13">
                    <mxGeometry width="50" height="50" relative="1" as="geometry">
                        <mxPoint x="30" y="530" as="sourcePoint"/>
                        <mxPoint x="80" y="480" as="targetPoint"/>
                        <Array as="points">
                            <mxPoint x="40" y="661"/>
                            <mxPoint x="40" y="400"/>
                            <mxPoint x="154" y="400"/>
                        </Array>
                    </mxGeometry>
                </mxCell>
                <mxCell id="37" value="Reducers use copies of state" style="edgeLabel;html=1;align=center;verticalAlign=middle;resizable=0;points=[];horizontal=0;" vertex="1" connectable="0" parent="36">
                    <mxGeometry x="-0.2116" relative="1" as="geometry">
                        <mxPoint as="offset"/>
                    </mxGeometry>
                </mxCell>
                <mxCell id="38" value="" style="endArrow=classic;html=1;rounded=0;exitX=0.5;exitY=1;exitDx=0;exitDy=0;entryX=0.5;entryY=0;entryDx=0;entryDy=0;" edge="1" parent="1" source="11" target="13">
                    <mxGeometry width="50" height="50" relative="1" as="geometry">
                        <mxPoint x="140" y="440" as="sourcePoint"/>
                        <mxPoint x="190" y="390" as="targetPoint"/>
                    </mxGeometry>
                </mxCell>
                <mxCell id="42" value="&lt;div style=&quot;text-align: right&quot;&gt;&lt;span&gt;&amp;nbsp; &amp;nbsp; &amp;nbsp; &amp;nbsp; &amp;nbsp;Actions&lt;/span&gt;&lt;/div&gt;&lt;div style=&quot;text-align: right&quot;&gt;&lt;span&gt;&lt;br&gt;&lt;/span&gt;&lt;/div&gt;&lt;font style=&quot;font-size: 12px&quot;&gt;Action creator&lt;/font&gt;" style="rounded=1;whiteSpace=wrap;html=1;verticalAlign=top;align=left;spacing=7;arcSize=5;" vertex="1" parent="1">
                    <mxGeometry x="319" y="438" width="135" height="209" as="geometry"/>
                </mxCell>
                <mxCell id="43" value="&lt;div style=&quot;font-size: 10px;&quot;&gt;Type : 'user/set'&lt;/div&gt;&lt;div style=&quot;font-size: 10px;&quot;&gt;Payload : {&lt;/div&gt;&amp;nbsp; &amp;nbsp; &amp;nbsp;email:&quot;&quot;&lt;br style=&quot;font-size: 10px;&quot;&gt;&amp;nbsp; &amp;nbsp; &amp;nbsp;firstName:&quot;&quot;&lt;br style=&quot;font-size: 10px;&quot;&gt;&amp;nbsp; &amp;nbsp; &amp;nbsp;lastName:&quot;&quot;&lt;br style=&quot;font-size: 10px;&quot;&gt;&amp;nbsp; &amp;nbsp; &amp;nbsp;createdAt:&quot;&quot;&lt;br style=&quot;font-size: 10px;&quot;&gt;&amp;nbsp; &amp;nbsp; &amp;nbsp;updatedAt:&quot;&quot;&lt;br style=&quot;font-size: 10px;&quot;&gt;&lt;div style=&quot;font-size: 10px;&quot;&gt;&lt;div style=&quot;font-size: 10px;&quot;&gt;&lt;span style=&quot;font-size: 10px;&quot;&gt;&amp;nbsp; &amp;nbsp; &amp;nbsp;&lt;/span&gt;id:&quot;&quot;&lt;/div&gt;&lt;/div&gt;&lt;div style=&quot;font-size: 10px;&quot;&gt;}&lt;/div&gt;" style="rounded=1;whiteSpace=wrap;html=1;verticalAlign=top;align=left;spacing=7;arcSize=6;fontSize=10;" vertex="1" parent="1">
                    <mxGeometry x="336.5" y="497" width="100" height="132" as="geometry"/>
                </mxCell>
                <mxCell id="44" value="" style="endArrow=classic;html=1;rounded=0;fontSize=10;exitX=0.5;exitY=0;exitDx=0;exitDy=0;" edge="1" parent="1" source="42">
                    <mxGeometry width="50" height="50" relative="1" as="geometry">
                        <mxPoint x="361" y="381" as="sourcePoint"/>
                        <mxPoint x="282" y="355" as="targetPoint"/>
                        <Array as="points">
                            <mxPoint x="387" y="355"/>
                        </Array>
                    </mxGeometry>
                </mxCell>
                <mxCell id="56" value="dispatch(action)" style="edgeLabel;html=1;align=center;verticalAlign=middle;resizable=0;points=[];fontSize=12;fontColor=default;" vertex="1" connectable="0" parent="44">
                    <mxGeometry x="0.7518" relative="1" as="geometry">
                        <mxPoint x="31" y="-1" as="offset"/>
                    </mxGeometry>
                </mxCell>
                <mxCell id="45" value="Header" style="whiteSpace=wrap;html=1;dashed=1;resizeHeight=1;resizeWidth=1;imageAspect=0;align=left;verticalAlign=top;spacing=7;" vertex="1" parent="1">
                    <mxGeometry x="484" y="401" width="218" height="357" as="geometry"/>
                </mxCell>
                <mxCell id="46" value="Services/auth-header&lt;br style=&quot;font-size: 12px;&quot;&gt;authHeader()" style="rounded=0;whiteSpace=wrap;html=1;fontSize=12;align=left;verticalAlign=top;" vertex="1" parent="1">
                    <mxGeometry x="555.5" y="694" width="121.5" height="36" as="geometry"/>
                </mxCell>
                <mxCell id="47" value="" style="endArrow=classic;html=1;rounded=0;fontSize=10;entryX=0;entryY=0.5;entryDx=0;entryDy=0;exitX=1;exitY=0.5;exitDx=0;exitDy=0;" edge="1" parent="1" source="62" target="46">
                    <mxGeometry width="50" height="50" relative="1" as="geometry">
                        <mxPoint x="468" y="712" as="sourcePoint"/>
                        <mxPoint x="396" y="781" as="targetPoint"/>
                    </mxGeometry>
                </mxCell>
                <mxCell id="49" value="&lt;font color=&quot;#ff3333&quot; style=&quot;font-size: 12px;&quot;&gt;!&lt;/font&gt;user.mail" style="edgeLabel;html=1;align=center;verticalAlign=middle;resizable=0;points=[];fontSize=12;" vertex="1" connectable="0" parent="47">
                    <mxGeometry x="0.3083" y="1" relative="1" as="geometry">
                        <mxPoint x="-5" y="-1" as="offset"/>
                    </mxGeometry>
                </mxCell>
                <mxCell id="48" value="" style="endArrow=classic;html=1;rounded=0;fontSize=10;exitX=1;exitY=0.898;exitDx=0;exitDy=0;exitPerimeter=0;entryX=0;entryY=0.5;entryDx=0;entryDy=0;" edge="1" parent="1" source="10" target="62">
                    <mxGeometry width="50" height="50" relative="1" as="geometry">
                        <mxPoint x="291" y="704" as="sourcePoint"/>
                        <mxPoint x="305" y="712" as="targetPoint"/>
                    </mxGeometry>
                </mxCell>
                <mxCell id="50" value="" style="endArrow=classic;html=1;rounded=0;fontSize=12;fontColor=#FF3333;entryX=1;entryY=0.5;entryDx=0;entryDy=0;exitX=0;exitY=0.5;exitDx=0;exitDy=0;" edge="1" parent="1" source="3" target="46">
                    <mxGeometry width="50" height="50" relative="1" as="geometry">
                        <mxPoint x="741" y="811" as="sourcePoint"/>
                        <mxPoint x="791" y="761" as="targetPoint"/>
                    </mxGeometry>
                </mxCell>
                <mxCell id="51" value="Services/user.service&lt;br style=&quot;font-size: 12px&quot;&gt;userAccess(token)" style="rounded=0;whiteSpace=wrap;html=1;fontSize=12;align=left;verticalAlign=top;" vertex="1" parent="1">
                    <mxGeometry x="555.5" y="633" width="121.5" height="36" as="geometry"/>
                </mxCell>
                <mxCell id="52" value="" style="endArrow=classic;html=1;rounded=0;fontSize=12;fontColor=#FF3333;entryX=0.5;entryY=1;entryDx=0;entryDy=0;exitX=0.5;exitY=0;exitDx=0;exitDy=0;" edge="1" parent="1" source="46" target="51">
                    <mxGeometry width="50" height="50" relative="1" as="geometry">
                        <mxPoint x="594" y="741" as="sourcePoint"/>
                        <mxPoint x="644" y="691" as="targetPoint"/>
                    </mxGeometry>
                </mxCell>
                <mxCell id="53" value="Axios" style="rounded=0;whiteSpace=wrap;html=1;align=left;verticalAlign=top;" vertex="1" parent="1">
                    <mxGeometry x="731" y="633" width="120" height="36" as="geometry"/>
                </mxCell>
                <mxCell id="54" value="" style="endArrow=classic;startArrow=classic;html=1;rounded=0;fontSize=12;fontColor=#FF3333;entryX=0;entryY=0.5;entryDx=0;entryDy=0;exitX=1;exitY=0.5;exitDx=0;exitDy=0;" edge="1" parent="1" source="51" target="53">
                    <mxGeometry width="50" height="50" relative="1" as="geometry">
                        <mxPoint x="617" y="817" as="sourcePoint"/>
                        <mxPoint x="667" y="767" as="targetPoint"/>
                    </mxGeometry>
                </mxCell>
                <mxCell id="55" value="" style="endArrow=classic;html=1;rounded=0;fontSize=12;fontColor=#FF3333;entryX=1;entryY=0.5;entryDx=0;entryDy=0;exitX=0.5;exitY=0;exitDx=0;exitDy=0;" edge="1" parent="1" source="51" target="42">
                    <mxGeometry width="50" height="50" relative="1" as="geometry">
                        <mxPoint x="561" y="610" as="sourcePoint"/>
                        <mxPoint x="611" y="560" as="targetPoint"/>
                        <Array as="points">
                            <mxPoint x="616" y="543"/>
                        </Array>
                    </mxGeometry>
                </mxCell>
                <mxCell id="57" value="userActions.set(user)" style="edgeLabel;html=1;align=center;verticalAlign=middle;resizable=0;points=[];fontSize=12;fontColor=default;" vertex="1" connectable="0" parent="55">
                    <mxGeometry x="0.4631" relative="1" as="geometry">
                        <mxPoint x="28" as="offset"/>
                    </mxGeometry>
                </mxCell>
                <mxCell id="58" value="" style="endArrow=classic;html=1;rounded=0;fontSize=12;fontColor=default;exitX=1;exitY=0.25;exitDx=0;exitDy=0;" edge="1" parent="1" source="53">
                    <mxGeometry width="50" height="50" relative="1" as="geometry">
                        <mxPoint x="890" y="678" as="sourcePoint"/>
                        <mxPoint x="929" y="642" as="targetPoint"/>
                    </mxGeometry>
                </mxCell>
                <mxCell id="59" value="request" style="edgeLabel;html=1;align=center;verticalAlign=middle;resizable=0;points=[];fontSize=12;fontColor=default;" vertex="1" connectable="0" parent="58">
                    <mxGeometry x="-0.1222" relative="1" as="geometry">
                        <mxPoint x="1" as="offset"/>
                    </mxGeometry>
                </mxCell>
                <mxCell id="60" value="" style="endArrow=classic;html=1;rounded=0;fontSize=12;fontColor=default;entryX=1;entryY=0.75;entryDx=0;entryDy=0;" edge="1" parent="1" target="53">
                    <mxGeometry width="50" height="50" relative="1" as="geometry">
                        <mxPoint x="927" y="660" as="sourcePoint"/>
                        <mxPoint x="949" y="663" as="targetPoint"/>
                    </mxGeometry>
                </mxCell>
                <mxCell id="61" value="response" style="edgeLabel;html=1;align=center;verticalAlign=middle;resizable=0;points=[];fontSize=12;fontColor=default;" vertex="1" connectable="0" parent="60">
                    <mxGeometry x="0.1551" relative="1" as="geometry">
                        <mxPoint x="7" y="-1" as="offset"/>
                    </mxGeometry>
                </mxCell>
                <mxCell id="62" value="&lt;div style=&quot;text-align: center&quot;&gt;Selectors&lt;/div&gt;&lt;div&gt;&lt;/div&gt;&lt;font style=&quot;font-size: 10px&quot;&gt;useSelector(selectUser)&lt;/font&gt;" style="rounded=1;whiteSpace=wrap;html=1;verticalAlign=top;align=left;spacing=2;arcSize=5;" vertex="1" parent="1">
                    <mxGeometry x="319" y="694" width="135" height="36" as="geometry"/>
                </mxCell>
            </root>
        </mxGraphModel>
    </diagram>
</mxfile>
